<mxfile host="65bd71144e">
    <diagram id="1Gyu1dNWtYHK6NGCt_mM" name="Page-1">
        <mxGraphModel dx="2075" dy="1655" grid="1" gridSize="10" guides="1" tooltips="1" connect="1" arrows="1" fold="1" page="0" pageScale="1" pageWidth="1100" pageHeight="850" background="#000000" math="0" shadow="0">
            <root>
                <mxCell id="0"/>
                <mxCell id="1" parent="0"/>
                <mxCell id="235" value="User" style="swimlane;startSize=0;rounded=1;shadow=0;glass=0;labelBackgroundColor=none;comic=0;fontSize=11;strokeColor=none;fillColor=none;gradientDirection=north;fontColor=#FFFFFF;swimlaneFillColor=#331A00;sketch=1;labelBorderColor=none;" parent="1" vertex="1">
                    <mxGeometry x="-130" y="450" width="460" height="580" as="geometry"/>
                </mxCell>
                <mxCell id="95" value="Skill" style="swimlane;fontStyle=1;align=center;verticalAlign=top;childLayout=stackLayout;horizontal=1;startSize=26;horizontalStack=0;resizeParent=1;resizeParentMax=0;resizeLast=0;collapsible=1;marginBottom=0;fillColor=#6a00ff;fontColor=#FFFFFF;rounded=1;sketch=1;labelBorderColor=none;strokeColor=#3700CC;" parent="235" vertex="1">
                    <mxGeometry x="277.5" y="350" width="160" height="190" as="geometry"/>
                </mxCell>
                <mxCell id="96" value="+ id: int" style="text;strokeColor=none;fillColor=none;align=left;verticalAlign=top;spacingLeft=4;spacingRight=4;overflow=hidden;rotatable=0;points=[[0,0.5],[1,0.5]];portConstraint=eastwest;fontColor=#FFFFFF;rounded=1;sketch=1;labelBorderColor=none;" parent="95" vertex="1">
                    <mxGeometry y="26" width="160" height="26" as="geometry"/>
                </mxCell>
                <mxCell id="97" value="+ name: string" style="text;strokeColor=none;fillColor=none;align=left;verticalAlign=top;spacingLeft=4;spacingRight=4;overflow=hidden;rotatable=0;points=[[0,0.5],[1,0.5]];portConstraint=eastwest;fontColor=#FFFFFF;rounded=1;sketch=1;labelBorderColor=none;" parent="95" vertex="1">
                    <mxGeometry y="52" width="160" height="26" as="geometry"/>
                </mxCell>
                <mxCell id="98" value="+ description: string" style="text;strokeColor=none;fillColor=none;align=left;verticalAlign=top;spacingLeft=4;spacingRight=4;overflow=hidden;rotatable=0;points=[[0,0.5],[1,0.5]];portConstraint=eastwest;fontColor=#FFFFFF;rounded=1;sketch=1;labelBorderColor=none;" parent="95" vertex="1">
                    <mxGeometry y="78" width="160" height="26" as="geometry"/>
                </mxCell>
                <mxCell id="99" value="+ icon: string" style="text;strokeColor=none;fillColor=none;align=left;verticalAlign=top;spacingLeft=4;spacingRight=4;overflow=hidden;rotatable=0;points=[[0,0.5],[1,0.5]];portConstraint=eastwest;fontColor=#FFFFFF;rounded=1;sketch=1;labelBorderColor=none;" parent="95" vertex="1">
                    <mxGeometry y="104" width="160" height="26" as="geometry"/>
                </mxCell>
                <mxCell id="158" value="+ level: int" style="text;strokeColor=none;fillColor=none;align=left;verticalAlign=top;spacingLeft=4;spacingRight=4;overflow=hidden;rotatable=0;points=[[0,0.5],[1,0.5]];portConstraint=eastwest;fontColor=#FFFFFF;rounded=1;sketch=1;labelBorderColor=none;" parent="95" vertex="1">
                    <mxGeometry y="130" width="160" height="26" as="geometry"/>
                </mxCell>
                <mxCell id="102" value="+ verified: boolean" style="text;strokeColor=none;fillColor=none;align=left;verticalAlign=top;spacingLeft=4;spacingRight=4;overflow=hidden;rotatable=0;points=[[0,0.5],[1,0.5]];portConstraint=eastwest;fontColor=#FFFFFF;rounded=1;sketch=1;labelBorderColor=none;" parent="95" vertex="1">
                    <mxGeometry y="156" width="160" height="26" as="geometry"/>
                </mxCell>
                <mxCell id="103" value="" style="line;strokeWidth=1;fillColor=none;align=left;verticalAlign=middle;spacingTop=-1;spacingLeft=3;spacingRight=3;rotatable=0;labelPosition=right;points=[];portConstraint=eastwest;fontColor=#FFFFFF;rounded=1;sketch=1;labelBorderColor=none;" parent="95" vertex="1">
                    <mxGeometry y="182" width="160" height="8" as="geometry"/>
                </mxCell>
                <mxCell id="75" value="User" style="swimlane;fontStyle=1;align=center;verticalAlign=top;childLayout=stackLayout;horizontal=1;startSize=26;horizontalStack=0;resizeParent=1;resizeParentMax=0;resizeLast=0;collapsible=1;marginBottom=0;fillColor=#6a00ff;fontColor=#FFFFFF;rounded=1;sketch=1;labelBorderColor=none;strokeColor=#3700CC;" parent="235" vertex="1">
                    <mxGeometry x="277.5" y="25" width="160" height="242" as="geometry"/>
                </mxCell>
                <mxCell id="76" value="+ id: int" style="text;strokeColor=none;fillColor=none;align=left;verticalAlign=top;spacingLeft=4;spacingRight=4;overflow=hidden;rotatable=0;points=[[0,0.5],[1,0.5]];portConstraint=eastwest;fontColor=#FFFFFF;rounded=1;sketch=1;labelBorderColor=none;" parent="75" vertex="1">
                    <mxGeometry y="26" width="160" height="26" as="geometry"/>
                </mxCell>
                <mxCell id="182" value="+ username: string" style="text;strokeColor=none;fillColor=none;align=left;verticalAlign=top;spacingLeft=4;spacingRight=4;overflow=hidden;rotatable=0;points=[[0,0.5],[1,0.5]];portConstraint=eastwest;fontColor=#FFFFFF;rounded=1;sketch=1;labelBorderColor=none;" parent="75" vertex="1">
                    <mxGeometry y="52" width="160" height="26" as="geometry"/>
                </mxCell>
                <mxCell id="183" value="+ password: string" style="text;strokeColor=none;fillColor=none;align=left;verticalAlign=top;spacingLeft=4;spacingRight=4;overflow=hidden;rotatable=0;points=[[0,0.5],[1,0.5]];portConstraint=eastwest;fontColor=#FFFFFF;rounded=1;sketch=1;labelBorderColor=none;" parent="75" vertex="1">
                    <mxGeometry y="78" width="160" height="26" as="geometry"/>
                </mxCell>
                <mxCell id="77" value="+ avatar: string" style="text;strokeColor=none;fillColor=none;align=left;verticalAlign=top;spacingLeft=4;spacingRight=4;overflow=hidden;rotatable=0;points=[[0,0.5],[1,0.5]];portConstraint=eastwest;fontColor=#FFFFFF;rounded=1;sketch=1;labelBorderColor=none;" parent="75" vertex="1">
                    <mxGeometry y="104" width="160" height="26" as="geometry"/>
                </mxCell>
                <mxCell id="78" value="+ name: string" style="text;strokeColor=none;fillColor=none;align=left;verticalAlign=top;spacingLeft=4;spacingRight=4;overflow=hidden;rotatable=0;points=[[0,0.5],[1,0.5]];portConstraint=eastwest;fontColor=#FFFFFF;rounded=1;sketch=1;labelBorderColor=none;" parent="75" vertex="1">
                    <mxGeometry y="130" width="160" height="26" as="geometry"/>
                </mxCell>
                <mxCell id="93" value="+ email: string" style="text;strokeColor=none;fillColor=none;align=left;verticalAlign=top;spacingLeft=4;spacingRight=4;overflow=hidden;rotatable=0;points=[[0,0.5],[1,0.5]];portConstraint=eastwest;fontColor=#FFFFFF;rounded=1;sketch=1;labelBorderColor=none;" parent="75" vertex="1">
                    <mxGeometry y="156" width="160" height="26" as="geometry"/>
                </mxCell>
                <mxCell id="79" value="+ github: string" style="text;strokeColor=none;fillColor=none;align=left;verticalAlign=top;spacingLeft=4;spacingRight=4;overflow=hidden;rotatable=0;points=[[0,0.5],[1,0.5]];portConstraint=eastwest;fontColor=#FFFFFF;rounded=1;sketch=1;labelBorderColor=none;" parent="75" vertex="1">
                    <mxGeometry y="182" width="160" height="26" as="geometry"/>
                </mxCell>
                <mxCell id="94" value="+ website: string" style="text;strokeColor=none;fillColor=none;align=left;verticalAlign=top;spacingLeft=4;spacingRight=4;overflow=hidden;rotatable=0;points=[[0,0.5],[1,0.5]];portConstraint=eastwest;fontColor=#FFFFFF;rounded=1;sketch=1;labelBorderColor=none;" parent="75" vertex="1">
                    <mxGeometry y="208" width="160" height="26" as="geometry"/>
                </mxCell>
                <mxCell id="81" value="" style="line;strokeWidth=1;fillColor=none;align=left;verticalAlign=middle;spacingTop=-1;spacingLeft=3;spacingRight=3;rotatable=0;labelPosition=right;points=[];portConstraint=eastwest;fontColor=#FFFFFF;rounded=1;sketch=1;labelBorderColor=none;" parent="75" vertex="1">
                    <mxGeometry y="234" width="160" height="8" as="geometry"/>
                </mxCell>
                <mxCell id="169" value="Partner" style="swimlane;fontStyle=1;align=center;verticalAlign=top;childLayout=stackLayout;horizontal=1;startSize=26;horizontalStack=0;resizeParent=1;resizeParentMax=0;resizeLast=0;collapsible=1;marginBottom=0;fillColor=#6a00ff;fontColor=#FFFFFF;rounded=1;sketch=1;labelBorderColor=none;strokeColor=#3700CC;" parent="235" vertex="1">
                    <mxGeometry x="22.5" y="73" width="160" height="34" as="geometry"/>
                </mxCell>
                <mxCell id="177" value="" style="line;strokeWidth=1;fillColor=none;align=left;verticalAlign=middle;spacingTop=-1;spacingLeft=3;spacingRight=3;rotatable=0;labelPosition=right;points=[];portConstraint=eastwest;fontColor=#FFFFFF;rounded=1;sketch=1;labelBorderColor=none;" parent="169" vertex="1">
                    <mxGeometry y="26" width="160" height="8" as="geometry"/>
                </mxCell>
                <mxCell id="129" value="" style="edgeStyle=none;html=1;endArrow=none;endFill=0;startArrow=diamond;startFill=1;fontColor=#FFFFFF;rounded=1;sketch=0;labelBorderColor=none;strokeColor=#FFFFFF;" parent="235" source="75" target="95" edge="1">
                    <mxGeometry relative="1" as="geometry">
                        <mxPoint x="445" y="-133" as="sourcePoint"/>
                        <mxPoint x="525" y="-133" as="targetPoint"/>
                        <Array as="points"/>
                    </mxGeometry>
                </mxCell>
                <mxCell id="130" value="Has" style="edgeLabel;html=1;align=center;verticalAlign=middle;resizable=0;points=[];labelBackgroundColor=none;fontColor=#FFFFFF;rounded=1;sketch=1;labelBorderColor=none;rotation=90;" parent="129" vertex="1" connectable="0">
                    <mxGeometry x="0.4641" y="4" relative="1" as="geometry">
                        <mxPoint x="3" y="-17" as="offset"/>
                    </mxGeometry>
                </mxCell>
                <mxCell id="131" value="0,*" style="edgeLabel;html=1;align=center;verticalAlign=middle;resizable=0;points=[];fontSize=11;labelBackgroundColor=none;fontColor=#FFFFFF;rounded=1;sketch=1;labelBorderColor=none;" parent="129" vertex="1" connectable="0">
                    <mxGeometry x="-0.8149" relative="1" as="geometry">
                        <mxPoint x="-11" y="8" as="offset"/>
                    </mxGeometry>
                </mxCell>
                <mxCell id="132" value="0,*" style="edgeLabel;html=1;align=center;verticalAlign=middle;resizable=0;points=[];fontSize=11;labelBackgroundColor=none;fontColor=#FFFFFF;rounded=1;sketch=1;labelBorderColor=none;" parent="129" vertex="1" connectable="0">
                    <mxGeometry x="0.7565" y="1" relative="1" as="geometry">
                        <mxPoint x="9" y="-2" as="offset"/>
                    </mxGeometry>
                </mxCell>
                <mxCell id="181" style="edgeStyle=none;html=1;fontSize=11;startArrow=none;startFill=0;endArrow=block;endFill=1;exitX=0.5;exitY=1;exitDx=0;exitDy=0;fontColor=#FFFFFF;rounded=1;sketch=0;labelBorderColor=none;strokeColor=#FFFFFF;" parent="235" source="169" target="75" edge="1">
                    <mxGeometry relative="1" as="geometry">
                        <mxPoint x="182.5" y="86.99999999999977" as="sourcePoint"/>
                        <Array as="points">
                            <mxPoint x="103" y="146"/>
                        </Array>
                    </mxGeometry>
                </mxCell>
                <mxCell id="243" style="edgeStyle=none;html=1;fontSize=11;startArrow=none;startFill=0;endArrow=block;endFill=1;fontColor=#FFFFFF;rounded=1;sketch=0;labelBorderColor=none;strokeColor=#FFFFFF;" parent="235" source="237" target="75" edge="1">
                    <mxGeometry relative="1" as="geometry">
                        <Array as="points">
                            <mxPoint x="103" y="146"/>
                        </Array>
                    </mxGeometry>
                </mxCell>
                <mxCell id="237" value="Admin" style="swimlane;fontStyle=1;align=center;verticalAlign=top;childLayout=stackLayout;horizontal=1;startSize=26;horizontalStack=0;resizeParent=1;resizeParentMax=0;resizeLast=0;collapsible=1;marginBottom=0;fillColor=#6a00ff;fontColor=#FFFFFF;rounded=1;sketch=1;labelBorderColor=none;strokeColor=#3700CC;" parent="235" vertex="1">
                    <mxGeometry x="22.5" y="170" width="160" height="60" as="geometry"/>
                </mxCell>
                <mxCell id="251" value="+ admin: boolean" style="text;strokeColor=none;fillColor=none;align=left;verticalAlign=top;spacingLeft=4;spacingRight=4;overflow=hidden;rotatable=0;points=[[0,0.5],[1,0.5]];portConstraint=eastwest;fontColor=#FFFFFF;rounded=1;sketch=1;labelBorderColor=none;" parent="237" vertex="1">
                    <mxGeometry y="26" width="160" height="26" as="geometry"/>
                </mxCell>
                <mxCell id="241" value="" style="line;strokeWidth=1;fillColor=none;align=left;verticalAlign=middle;spacingTop=-1;spacingLeft=3;spacingRight=3;rotatable=0;labelPosition=right;points=[];portConstraint=eastwest;fontColor=#FFFFFF;rounded=1;sketch=1;labelBorderColor=none;" parent="237" vertex="1">
                    <mxGeometry y="52" width="160" height="8" as="geometry"/>
                </mxCell>
                <mxCell id="264" style="edgeStyle=none;html=1;fontSize=11;fontColor=#FFFFFF;startArrow=none;startFill=0;endArrow=none;endFill=0;entryX=0;entryY=0.5;entryDx=0;entryDy=0;rounded=1;sketch=0;labelBorderColor=none;strokeColor=#FFFFFF;" parent="235" source="169" target="182" edge="1">
                    <mxGeometry relative="1" as="geometry">
                        <mxPoint x="182.33999999999992" y="70.20999999999997" as="sourcePoint"/>
                        <mxPoint x="277.5" y="69.79" as="targetPoint"/>
                        <Array as="points"/>
                    </mxGeometry>
                </mxCell>
                <mxCell id="265" value="Affiliated" style="edgeLabel;html=1;align=center;verticalAlign=middle;resizable=0;points=[];fontSize=11;fontColor=#FFFFFF;labelBackgroundColor=none;rounded=1;sketch=1;labelBorderColor=none;rotation=-180;" parent="264" vertex="1" connectable="0">
                    <mxGeometry x="-0.3692" y="-2" relative="1" as="geometry">
                        <mxPoint x="17" y="5" as="offset"/>
                    </mxGeometry>
                </mxCell>
                <mxCell id="266" value="0,*" style="edgeLabel;html=1;align=center;verticalAlign=middle;resizable=0;points=[];fontSize=11;fontColor=#FFFFFF;labelBackgroundColor=none;rounded=1;sketch=1;labelBorderColor=none;" parent="264" vertex="1" connectable="0">
                    <mxGeometry x="0.7605" relative="1" as="geometry">
                        <mxPoint y="-10" as="offset"/>
                    </mxGeometry>
                </mxCell>
                <mxCell id="268" value="0,1" style="edgeLabel;html=1;align=center;verticalAlign=middle;resizable=0;points=[];fontSize=11;fontColor=#FFFFFF;labelBackgroundColor=none;rounded=1;sketch=1;labelBorderColor=none;" parent="264" vertex="1" connectable="0">
                    <mxGeometry x="-0.7969" y="1" relative="1" as="geometry">
                        <mxPoint y="-9" as="offset"/>
                    </mxGeometry>
                </mxCell>
                <mxCell id="232" value="Roadmap" style="swimlane;startSize=0;rounded=1;shadow=0;glass=0;labelBackgroundColor=none;comic=0;fontSize=11;strokeColor=none;fillColor=none;gradientColor=none;gradientDirection=north;swimlaneFillColor=#003300;fontColor=#FFFFFF;sketch=1;labelBorderColor=none;" parent="1" vertex="1">
                    <mxGeometry x="106" y="77" width="1254" height="293" as="geometry"/>
                </mxCell>
                <mxCell id="44" value="Resource" style="swimlane;fontStyle=1;align=center;verticalAlign=top;childLayout=stackLayout;horizontal=1;startSize=26;horizontalStack=0;resizeParent=1;resizeParentMax=0;resizeLast=0;collapsible=1;marginBottom=0;fillColor=#6a00ff;fontColor=#FFFFFF;rounded=1;sketch=1;labelBorderColor=none;strokeColor=#3700CC;" parent="232" vertex="1">
                    <mxGeometry x="1064" y="72" width="160" height="164" as="geometry"/>
                </mxCell>
                <mxCell id="86" value="+ id: int" style="text;strokeColor=none;fillColor=none;align=left;verticalAlign=top;spacingLeft=4;spacingRight=4;overflow=hidden;rotatable=0;points=[[0,0.5],[1,0.5]];portConstraint=eastwest;fontColor=#FFFFFF;rounded=1;sketch=1;labelBorderColor=none;" parent="44" vertex="1">
                    <mxGeometry y="26" width="160" height="26" as="geometry"/>
                </mxCell>
                <mxCell id="45" value="+ title: string" style="text;strokeColor=none;fillColor=none;align=left;verticalAlign=top;spacingLeft=4;spacingRight=4;overflow=hidden;rotatable=0;points=[[0,0.5],[1,0.5]];portConstraint=eastwest;fontColor=#FFFFFF;rounded=1;sketch=1;labelBorderColor=none;" parent="44" vertex="1">
                    <mxGeometry y="52" width="160" height="26" as="geometry"/>
                </mxCell>
                <mxCell id="46" value="+ description: string" style="text;strokeColor=none;fillColor=none;align=left;verticalAlign=top;spacingLeft=4;spacingRight=4;overflow=hidden;rotatable=0;points=[[0,0.5],[1,0.5]];portConstraint=eastwest;fontColor=#FFFFFF;rounded=1;sketch=1;labelBorderColor=none;" parent="44" vertex="1">
                    <mxGeometry y="78" width="160" height="26" as="geometry"/>
                </mxCell>
                <mxCell id="47" value="+ link: string" style="text;strokeColor=none;fillColor=none;align=left;verticalAlign=top;spacingLeft=4;spacingRight=4;overflow=hidden;rotatable=0;points=[[0,0.5],[1,0.5]];portConstraint=eastwest;fontColor=#FFFFFF;rounded=1;sketch=1;labelBorderColor=none;" parent="44" vertex="1">
                    <mxGeometry y="104" width="160" height="26" as="geometry"/>
                </mxCell>
                <mxCell id="48" value="+ visited: boolean" style="text;strokeColor=none;fillColor=none;align=left;verticalAlign=top;spacingLeft=4;spacingRight=4;overflow=hidden;rotatable=0;points=[[0,0.5],[1,0.5]];portConstraint=eastwest;fontColor=#FFFFFF;rounded=1;sketch=1;labelBorderColor=none;" parent="44" vertex="1">
                    <mxGeometry y="130" width="160" height="26" as="geometry"/>
                </mxCell>
                <mxCell id="49" value="" style="line;strokeWidth=1;fillColor=none;align=left;verticalAlign=middle;spacingTop=-1;spacingLeft=3;spacingRight=3;rotatable=0;labelPosition=right;points=[];portConstraint=eastwest;fontColor=#FFFFFF;rounded=1;sketch=1;labelBorderColor=none;" parent="44" vertex="1">
                    <mxGeometry y="156" width="160" height="8" as="geometry"/>
                </mxCell>
                <mxCell id="7" value="Module" style="swimlane;fontStyle=1;align=center;verticalAlign=top;childLayout=stackLayout;horizontal=1;startSize=26;horizontalStack=0;resizeParent=1;resizeParentMax=0;resizeLast=0;collapsible=1;marginBottom=0;fillColor=#6a00ff;fontColor=#FFFFFF;rounded=1;sketch=1;labelBorderColor=none;strokeColor=#3700CC;" parent="232" vertex="1">
                    <mxGeometry x="554" y="71" width="160" height="164" as="geometry"/>
                </mxCell>
                <mxCell id="84" value="+ id: int" style="text;strokeColor=none;fillColor=none;align=left;verticalAlign=top;spacingLeft=4;spacingRight=4;overflow=hidden;rotatable=0;points=[[0,0.5],[1,0.5]];portConstraint=eastwest;fontColor=#FFFFFF;rounded=1;sketch=1;labelBorderColor=none;" parent="7" vertex="1">
                    <mxGeometry y="26" width="160" height="26" as="geometry"/>
                </mxCell>
                <mxCell id="8" value="+ title: string" style="text;strokeColor=none;fillColor=none;align=left;verticalAlign=top;spacingLeft=4;spacingRight=4;overflow=hidden;rotatable=0;points=[[0,0.5],[1,0.5]];portConstraint=eastwest;fontColor=#FFFFFF;rounded=1;sketch=1;labelBorderColor=none;" parent="7" vertex="1">
                    <mxGeometry y="52" width="160" height="26" as="geometry"/>
                </mxCell>
                <mxCell id="18" value="+ description: string" style="text;strokeColor=none;fillColor=none;align=left;verticalAlign=top;spacingLeft=4;spacingRight=4;overflow=hidden;rotatable=0;points=[[0,0.5],[1,0.5]];portConstraint=eastwest;fontColor=#FFFFFF;rounded=1;sketch=1;labelBorderColor=none;" parent="7" vertex="1">
                    <mxGeometry y="78" width="160" height="26" as="geometry"/>
                </mxCell>
                <mxCell id="19" value="+ time: int" style="text;strokeColor=none;fillColor=none;align=left;verticalAlign=top;spacingLeft=4;spacingRight=4;overflow=hidden;rotatable=0;points=[[0,0.5],[1,0.5]];portConstraint=eastwest;fontColor=#FFFFFF;rounded=1;sketch=1;labelBorderColor=none;" parent="7" vertex="1">
                    <mxGeometry y="104" width="160" height="26" as="geometry"/>
                </mxCell>
                <mxCell id="20" value="+ done: boolean" style="text;strokeColor=none;fillColor=none;align=left;verticalAlign=top;spacingLeft=4;spacingRight=4;overflow=hidden;rotatable=0;points=[[0,0.5],[1,0.5]];portConstraint=eastwest;fontColor=#FFFFFF;rounded=1;sketch=1;labelBorderColor=none;" parent="7" vertex="1">
                    <mxGeometry y="130" width="160" height="26" as="geometry"/>
                </mxCell>
                <mxCell id="9" value="" style="line;strokeWidth=1;fillColor=none;align=left;verticalAlign=middle;spacingTop=-1;spacingLeft=3;spacingRight=3;rotatable=0;labelPosition=right;points=[];portConstraint=eastwest;fontColor=#FFFFFF;rounded=1;sketch=1;labelBorderColor=none;" parent="7" vertex="1">
                    <mxGeometry y="156" width="160" height="8" as="geometry"/>
                </mxCell>
                <mxCell id="117" value="" style="edgeStyle=none;html=1;endArrow=none;endFill=0;startArrow=none;startFill=0;exitX=0.25;exitY=0;exitDx=0;exitDy=0;entryX=0.75;entryY=0;entryDx=0;entryDy=0;fontColor=#FFFFFF;rounded=1;sketch=0;labelBorderColor=none;strokeColor=#FFFFFF;" parent="232" source="7" target="7" edge="1">
                    <mxGeometry relative="1" as="geometry">
                        <mxPoint x="313" y="32" as="sourcePoint"/>
                        <mxPoint x="393" y="32" as="targetPoint"/>
                        <Array as="points">
                            <mxPoint x="594" y="32"/>
                            <mxPoint x="674" y="32"/>
                        </Array>
                    </mxGeometry>
                </mxCell>
                <mxCell id="118" value="Prerequisites" style="edgeLabel;html=1;align=center;verticalAlign=middle;resizable=0;points=[];labelBackgroundColor=none;fontColor=#FFFFFF;rounded=1;sketch=1;labelBorderColor=none;" parent="117" vertex="1" connectable="0">
                    <mxGeometry x="0.4641" y="4" relative="1" as="geometry">
                        <mxPoint x="8" y="-8" as="offset"/>
                    </mxGeometry>
                </mxCell>
                <mxCell id="119" value="1,*" style="edgeLabel;html=1;align=center;verticalAlign=middle;resizable=0;points=[];fontSize=11;labelBackgroundColor=none;fontColor=#FFFFFF;rounded=1;sketch=1;labelBorderColor=none;" parent="117" vertex="1" connectable="0">
                    <mxGeometry x="-0.8149" relative="1" as="geometry">
                        <mxPoint x="-7" y="5" as="offset"/>
                    </mxGeometry>
                </mxCell>
                <mxCell id="120" value="0,*" style="edgeLabel;html=1;align=center;verticalAlign=middle;resizable=0;points=[];fontSize=11;labelBackgroundColor=none;fontColor=#FFFFFF;rounded=1;sketch=1;labelBorderColor=none;" parent="117" vertex="1" connectable="0">
                    <mxGeometry x="0.7565" y="1" relative="1" as="geometry">
                        <mxPoint x="7" y="10" as="offset"/>
                    </mxGeometry>
                </mxCell>
                <mxCell id="151" value="Module" style="edgeLabel;html=1;align=center;verticalAlign=middle;resizable=0;points=[];labelBackgroundColor=none;fontColor=#FFFFFF;rounded=1;sketch=1;labelBorderColor=none;" parent="117" vertex="1" connectable="0">
                    <mxGeometry x="-0.6858" y="-1" relative="1" as="geometry">
                        <mxPoint y="-27" as="offset"/>
                    </mxGeometry>
                </mxCell>
                <mxCell id="23" value="Node" style="swimlane;fontStyle=1;align=center;verticalAlign=top;childLayout=stackLayout;horizontal=1;startSize=26;horizontalStack=0;resizeParent=1;resizeParentMax=0;resizeLast=0;collapsible=1;marginBottom=0;fillColor=#6a00ff;fontColor=#FFFFFF;rounded=1;sketch=1;labelBorderColor=none;strokeColor=#3700CC;" parent="232" vertex="1">
                    <mxGeometry x="804" y="85" width="160" height="138" as="geometry"/>
                </mxCell>
                <mxCell id="87" value="+ id: int" style="text;strokeColor=none;fillColor=none;align=left;verticalAlign=top;spacingLeft=4;spacingRight=4;overflow=hidden;rotatable=0;points=[[0,0.5],[1,0.5]];portConstraint=eastwest;fontColor=#FFFFFF;rounded=1;sketch=1;labelBorderColor=none;" parent="23" vertex="1">
                    <mxGeometry y="26" width="160" height="26" as="geometry"/>
                </mxCell>
                <mxCell id="24" value="+ title: string" style="text;strokeColor=none;fillColor=none;align=left;verticalAlign=top;spacingLeft=4;spacingRight=4;overflow=hidden;rotatable=0;points=[[0,0.5],[1,0.5]];portConstraint=eastwest;fontColor=#FFFFFF;rounded=1;sketch=1;labelBorderColor=none;" parent="23" vertex="1">
                    <mxGeometry y="52" width="160" height="26" as="geometry"/>
                </mxCell>
                <mxCell id="25" value="+ description: string" style="text;strokeColor=none;fillColor=none;align=left;verticalAlign=top;spacingLeft=4;spacingRight=4;overflow=hidden;rotatable=0;points=[[0,0.5],[1,0.5]];portConstraint=eastwest;fontColor=#FFFFFF;rounded=1;sketch=1;labelBorderColor=none;" parent="23" vertex="1">
                    <mxGeometry y="78" width="160" height="26" as="geometry"/>
                </mxCell>
                <mxCell id="26" value="+ time: int" style="text;strokeColor=none;fillColor=none;align=left;verticalAlign=top;spacingLeft=4;spacingRight=4;overflow=hidden;rotatable=0;points=[[0,0.5],[1,0.5]];portConstraint=eastwest;fontColor=#FFFFFF;rounded=1;sketch=1;labelBorderColor=none;" parent="23" vertex="1">
                    <mxGeometry y="104" width="160" height="26" as="geometry"/>
                </mxCell>
                <mxCell id="28" value="" style="line;strokeWidth=1;fillColor=none;align=left;verticalAlign=middle;spacingTop=-1;spacingLeft=3;spacingRight=3;rotatable=0;labelPosition=right;points=[];portConstraint=eastwest;fontColor=#FFFFFF;rounded=1;sketch=1;labelBorderColor=none;" parent="23" vertex="1">
                    <mxGeometry y="130" width="160" height="8" as="geometry"/>
                </mxCell>
                <mxCell id="113" value="" style="edgeStyle=none;html=1;endArrow=none;endFill=0;startArrow=diamond;startFill=1;fontColor=#FFFFFF;rounded=1;sketch=0;labelBorderColor=none;strokeColor=#FFFFFF;" parent="232" source="7" target="23" edge="1">
                    <mxGeometry relative="1" as="geometry">
                        <mxPoint x="448" y="232" as="sourcePoint"/>
                        <mxPoint x="528" y="232" as="targetPoint"/>
                    </mxGeometry>
                </mxCell>
                <mxCell id="114" value="Contains" style="edgeLabel;html=1;align=center;verticalAlign=middle;resizable=0;points=[];labelBackgroundColor=none;fontColor=#FFFFFF;rounded=1;sketch=1;labelBorderColor=none;" parent="113" vertex="1" connectable="0">
                    <mxGeometry x="0.4641" y="4" relative="1" as="geometry">
                        <mxPoint x="-26" y="-3" as="offset"/>
                    </mxGeometry>
                </mxCell>
                <mxCell id="115" value="1" style="edgeLabel;html=1;align=center;verticalAlign=middle;resizable=0;points=[];fontSize=11;labelBackgroundColor=none;fontColor=#FFFFFF;rounded=1;sketch=1;labelBorderColor=none;" parent="113" vertex="1" connectable="0">
                    <mxGeometry x="-0.8149" relative="1" as="geometry">
                        <mxPoint x="1" y="8" as="offset"/>
                    </mxGeometry>
                </mxCell>
                <mxCell id="116" value="1,*" style="edgeLabel;html=1;align=center;verticalAlign=middle;resizable=0;points=[];fontSize=11;labelBackgroundColor=none;fontColor=#FFFFFF;rounded=1;sketch=1;labelBorderColor=none;" parent="113" vertex="1" connectable="0">
                    <mxGeometry x="0.7565" y="1" relative="1" as="geometry">
                        <mxPoint x="2" y="-5" as="offset"/>
                    </mxGeometry>
                </mxCell>
                <mxCell id="121" value="" style="edgeStyle=none;html=1;endArrow=none;endFill=0;startArrow=diamond;startFill=1;fontColor=#FFFFFF;rounded=1;sketch=0;labelBorderColor=none;strokeColor=#FFFFFF;" parent="232" source="23" target="44" edge="1">
                    <mxGeometry relative="1" as="geometry">
                        <mxPoint x="399" y="312" as="sourcePoint"/>
                        <mxPoint x="479" y="312" as="targetPoint"/>
                    </mxGeometry>
                </mxCell>
                <mxCell id="122" value="Nominates" style="edgeLabel;html=1;align=center;verticalAlign=middle;resizable=0;points=[];labelBackgroundColor=none;fontColor=#FFFFFF;rounded=1;sketch=1;labelBorderColor=none;" parent="121" vertex="1" connectable="0">
                    <mxGeometry x="0.4641" y="4" relative="1" as="geometry">
                        <mxPoint x="-27" y="-4" as="offset"/>
                    </mxGeometry>
                </mxCell>
                <mxCell id="123" value="1" style="edgeLabel;html=1;align=center;verticalAlign=middle;resizable=0;points=[];fontSize=11;labelBackgroundColor=none;fontColor=#FFFFFF;rounded=1;sketch=1;labelBorderColor=none;" parent="121" vertex="1" connectable="0">
                    <mxGeometry x="-0.8149" relative="1" as="geometry">
                        <mxPoint x="-4" y="10" as="offset"/>
                    </mxGeometry>
                </mxCell>
                <mxCell id="124" value="0,*" style="edgeLabel;html=1;align=center;verticalAlign=middle;resizable=0;points=[];fontSize=11;labelBackgroundColor=none;fontColor=#FFFFFF;rounded=1;sketch=1;labelBorderColor=none;" parent="121" vertex="1" connectable="0">
                    <mxGeometry x="0.7565" y="1" relative="1" as="geometry">
                        <mxPoint x="2" y="-7" as="offset"/>
                    </mxGeometry>
                </mxCell>
                <mxCell id="2" value="Roadmap" style="swimlane;fontStyle=1;align=center;verticalAlign=top;childLayout=stackLayout;horizontal=1;startSize=26;horizontalStack=0;resizeParent=1;resizeParentMax=0;resizeLast=0;collapsible=1;marginBottom=0;fillColor=#6a00ff;fontColor=#FFFFFF;rounded=1;sketch=1;labelBorderColor=none;labelBackgroundColor=none;strokeColor=#3700CC;" parent="232" vertex="1">
                    <mxGeometry x="41.5" y="72" width="160" height="164" as="geometry"/>
                </mxCell>
                <mxCell id="16" value="+ id: int" style="text;strokeColor=none;fillColor=none;align=left;verticalAlign=top;spacingLeft=4;spacingRight=4;overflow=hidden;rotatable=0;points=[[0,0.5],[1,0.5]];portConstraint=eastwest;fontColor=#FFFFFF;rounded=1;sketch=1;labelBorderColor=none;" parent="2" vertex="1">
                    <mxGeometry y="26" width="160" height="26" as="geometry"/>
                </mxCell>
                <mxCell id="73" value="+ title: string" style="text;strokeColor=none;fillColor=none;align=left;verticalAlign=top;spacingLeft=4;spacingRight=4;overflow=hidden;rotatable=0;points=[[0,0.5],[1,0.5]];portConstraint=eastwest;fontColor=#FFFFFF;rounded=1;sketch=1;labelBorderColor=none;" parent="2" vertex="1">
                    <mxGeometry y="52" width="160" height="26" as="geometry"/>
                </mxCell>
                <mxCell id="14" value="+ description: string" style="text;strokeColor=none;fillColor=none;align=left;verticalAlign=top;spacingLeft=4;spacingRight=4;overflow=hidden;rotatable=0;points=[[0,0.5],[1,0.5]];portConstraint=eastwest;fontColor=#FFFFFF;rounded=1;sketch=1;labelBorderColor=none;" parent="2" vertex="1">
                    <mxGeometry y="78" width="160" height="26" as="geometry"/>
                </mxCell>
                <mxCell id="13" value="+ time: int" style="text;strokeColor=none;fillColor=none;align=left;verticalAlign=top;spacingLeft=4;spacingRight=4;overflow=hidden;rotatable=0;points=[[0,0.5],[1,0.5]];portConstraint=eastwest;fontColor=#FFFFFF;rounded=1;sketch=1;labelBorderColor=none;" parent="2" vertex="1">
                    <mxGeometry y="104" width="160" height="26" as="geometry"/>
                </mxCell>
                <mxCell id="15" value="+ done: boolean" style="text;strokeColor=none;fillColor=none;align=left;verticalAlign=top;spacingLeft=4;spacingRight=4;overflow=hidden;rotatable=0;points=[[0,0.5],[1,0.5]];portConstraint=eastwest;fontColor=#FFFFFF;rounded=1;sketch=1;labelBorderColor=none;" parent="2" vertex="1">
                    <mxGeometry y="130" width="160" height="26" as="geometry"/>
                </mxCell>
                <mxCell id="4" value="" style="line;strokeWidth=1;fillColor=none;align=left;verticalAlign=middle;spacingTop=-1;spacingLeft=3;spacingRight=3;rotatable=0;labelPosition=right;points=[];portConstraint=eastwest;fontColor=#FFFFFF;rounded=1;sketch=1;labelBorderColor=none;" parent="2" vertex="1">
                    <mxGeometry y="156" width="160" height="8" as="geometry"/>
                </mxCell>
                <mxCell id="11" value="" style="edgeStyle=none;html=1;endArrow=none;endFill=0;startArrow=diamond;startFill=0;fontColor=#FFFFFF;rounded=1;sketch=0;labelBorderColor=none;strokeColor=#FFFFFF;" parent="232" source="308" target="7" edge="1">
                    <mxGeometry relative="1" as="geometry">
                        <mxPoint x="444" y="153" as="sourcePoint"/>
                    </mxGeometry>
                </mxCell>
                <mxCell id="17" value="Contains" style="edgeLabel;html=1;align=center;verticalAlign=middle;resizable=0;points=[];labelBackgroundColor=none;fontColor=#FFFFFF;rounded=1;sketch=1;labelBorderColor=none;" parent="11" vertex="1" connectable="0">
                    <mxGeometry x="0.4641" y="4" relative="1" as="geometry">
                        <mxPoint x="-25" y="-3" as="offset"/>
                    </mxGeometry>
                </mxCell>
                <mxCell id="110" value="1,*" style="edgeLabel;html=1;align=center;verticalAlign=middle;resizable=0;points=[];fontSize=11;labelBackgroundColor=none;fontColor=#FFFFFF;rounded=1;sketch=1;labelBorderColor=none;" parent="11" vertex="1" connectable="0">
                    <mxGeometry x="-0.8149" relative="1" as="geometry">
                        <mxPoint x="1" y="9" as="offset"/>
                    </mxGeometry>
                </mxCell>
                <mxCell id="112" value="1,*" style="edgeLabel;html=1;align=center;verticalAlign=middle;resizable=0;points=[];fontSize=11;labelBackgroundColor=none;fontColor=#FFFFFF;rounded=1;sketch=1;labelBorderColor=none;" parent="11" vertex="1" connectable="0">
                    <mxGeometry x="0.7565" y="1" relative="1" as="geometry">
                        <mxPoint y="-6" as="offset"/>
                    </mxGeometry>
                </mxCell>
                <mxCell id="308" value="Subject" style="swimlane;fontStyle=1;align=center;verticalAlign=top;childLayout=stackLayout;horizontal=1;startSize=26;horizontalStack=0;resizeParent=1;resizeParentMax=0;resizeLast=0;collapsible=1;marginBottom=0;fillColor=#6a00ff;fontColor=#FFFFFF;rounded=1;sketch=1;labelBorderColor=none;labelBackgroundColor=none;strokeColor=#3700CC;" parent="232" vertex="1">
                    <mxGeometry x="294" y="72" width="160" height="164" as="geometry"/>
                </mxCell>
                <mxCell id="309" value="+ id: int" style="text;strokeColor=none;fillColor=none;align=left;verticalAlign=top;spacingLeft=4;spacingRight=4;overflow=hidden;rotatable=0;points=[[0,0.5],[1,0.5]];portConstraint=eastwest;fontColor=#FFFFFF;rounded=1;sketch=1;labelBorderColor=none;" parent="308" vertex="1">
                    <mxGeometry y="26" width="160" height="26" as="geometry"/>
                </mxCell>
                <mxCell id="310" value="+ title: string" style="text;strokeColor=none;fillColor=none;align=left;verticalAlign=top;spacingLeft=4;spacingRight=4;overflow=hidden;rotatable=0;points=[[0,0.5],[1,0.5]];portConstraint=eastwest;fontColor=#FFFFFF;rounded=1;sketch=1;labelBorderColor=none;" parent="308" vertex="1">
                    <mxGeometry y="52" width="160" height="26" as="geometry"/>
                </mxCell>
                <mxCell id="311" value="+ description: string" style="text;strokeColor=none;fillColor=none;align=left;verticalAlign=top;spacingLeft=4;spacingRight=4;overflow=hidden;rotatable=0;points=[[0,0.5],[1,0.5]];portConstraint=eastwest;fontColor=#FFFFFF;rounded=1;sketch=1;labelBorderColor=none;" parent="308" vertex="1">
                    <mxGeometry y="78" width="160" height="26" as="geometry"/>
                </mxCell>
                <mxCell id="312" value="+ time: int" style="text;strokeColor=none;fillColor=none;align=left;verticalAlign=top;spacingLeft=4;spacingRight=4;overflow=hidden;rotatable=0;points=[[0,0.5],[1,0.5]];portConstraint=eastwest;fontColor=#FFFFFF;rounded=1;sketch=1;labelBorderColor=none;" parent="308" vertex="1">
                    <mxGeometry y="104" width="160" height="26" as="geometry"/>
                </mxCell>
                <mxCell id="313" value="+ done: boolean" style="text;strokeColor=none;fillColor=none;align=left;verticalAlign=top;spacingLeft=4;spacingRight=4;overflow=hidden;rotatable=0;points=[[0,0.5],[1,0.5]];portConstraint=eastwest;fontColor=#FFFFFF;rounded=1;sketch=1;labelBorderColor=none;" parent="308" vertex="1">
                    <mxGeometry y="130" width="160" height="26" as="geometry"/>
                </mxCell>
                <mxCell id="314" value="" style="line;strokeWidth=1;fillColor=none;align=left;verticalAlign=middle;spacingTop=-1;spacingLeft=3;spacingRight=3;rotatable=0;labelPosition=right;points=[];portConstraint=eastwest;fontColor=#FFFFFF;rounded=1;sketch=1;labelBorderColor=none;" parent="308" vertex="1">
                    <mxGeometry y="156" width="160" height="8" as="geometry"/>
                </mxCell>
                <mxCell id="316" value="" style="edgeStyle=none;html=1;endArrow=none;endFill=0;startArrow=diamond;startFill=0;fontColor=#FFFFFF;rounded=1;sketch=0;labelBorderColor=none;strokeColor=#FFFFFF;" parent="232" source="2" target="308" edge="1">
                    <mxGeometry relative="1" as="geometry">
                        <mxPoint x="464" y="163.69230769230762" as="sourcePoint"/>
                        <mxPoint x="564" y="163.30769230769238" as="targetPoint"/>
                    </mxGeometry>
                </mxCell>
                <mxCell id="317" value="Contains" style="edgeLabel;html=1;align=center;verticalAlign=middle;resizable=0;points=[];labelBackgroundColor=none;fontColor=#FFFFFF;rounded=1;sketch=1;labelBorderColor=none;" parent="316" vertex="1" connectable="0">
                    <mxGeometry x="0.4641" y="4" relative="1" as="geometry">
                        <mxPoint x="-25" y="-3" as="offset"/>
                    </mxGeometry>
                </mxCell>
                <mxCell id="318" value="1,*" style="edgeLabel;html=1;align=center;verticalAlign=middle;resizable=0;points=[];fontSize=11;labelBackgroundColor=none;fontColor=#FFFFFF;rounded=1;sketch=1;labelBorderColor=none;" parent="316" vertex="1" connectable="0">
                    <mxGeometry x="-0.8149" relative="1" as="geometry">
                        <mxPoint x="1" y="9" as="offset"/>
                    </mxGeometry>
                </mxCell>
                <mxCell id="319" value="1,*" style="edgeLabel;html=1;align=center;verticalAlign=middle;resizable=0;points=[];fontSize=11;labelBackgroundColor=none;fontColor=#FFFFFF;rounded=1;sketch=1;labelBorderColor=none;" parent="316" vertex="1" connectable="0">
                    <mxGeometry x="0.7565" y="1" relative="1" as="geometry">
                        <mxPoint y="-6" as="offset"/>
                    </mxGeometry>
                </mxCell>
                <mxCell id="233" value="Quiz" style="swimlane;startSize=0;rounded=1;shadow=0;glass=0;labelBackgroundColor=none;comic=0;fontSize=11;strokeColor=none;fillColor=none;gradientColor=none;gradientDirection=north;swimlaneFillColor=#001933;fontColor=#FFFFFF;sketch=1;labelBorderColor=none;" parent="1" vertex="1">
                    <mxGeometry x="633" y="495" width="490" height="446" as="geometry"/>
                </mxCell>
                <mxCell id="54" value="Question" style="swimlane;fontStyle=1;align=center;verticalAlign=top;childLayout=stackLayout;horizontal=1;startSize=26;horizontalStack=0;resizeParent=1;resizeParentMax=0;resizeLast=0;collapsible=1;marginBottom=0;fillColor=#6a00ff;fontColor=#FFFFFF;rounded=1;sketch=1;labelBorderColor=none;strokeColor=#3700CC;" parent="233" vertex="1">
                    <mxGeometry x="305" y="19.499999999999943" width="160" height="164" as="geometry"/>
                </mxCell>
                <mxCell id="88" value="+ id: int" style="text;strokeColor=none;fillColor=none;align=left;verticalAlign=top;spacingLeft=4;spacingRight=4;overflow=hidden;rotatable=0;points=[[0,0.5],[1,0.5]];portConstraint=eastwest;fontColor=#FFFFFF;rounded=1;sketch=1;labelBorderColor=none;" parent="54" vertex="1">
                    <mxGeometry y="26" width="160" height="26" as="geometry"/>
                </mxCell>
                <mxCell id="55" value="+ type: int" style="text;strokeColor=none;fillColor=none;align=left;verticalAlign=top;spacingLeft=4;spacingRight=4;overflow=hidden;rotatable=0;points=[[0,0.5],[1,0.5]];portConstraint=eastwest;fontColor=#FFFFFF;rounded=1;sketch=1;labelBorderColor=none;" parent="54" vertex="1">
                    <mxGeometry y="52" width="160" height="26" as="geometry"/>
                </mxCell>
                <mxCell id="56" value="+ prompt: string" style="text;strokeColor=none;fillColor=none;align=left;verticalAlign=top;spacingLeft=4;spacingRight=4;overflow=hidden;rotatable=0;points=[[0,0.5],[1,0.5]];portConstraint=eastwest;fontColor=#FFFFFF;rounded=1;sketch=1;labelBorderColor=none;" parent="54" vertex="1">
                    <mxGeometry y="78" width="160" height="26" as="geometry"/>
                </mxCell>
                <mxCell id="92" value="+ time: string" style="text;strokeColor=none;fillColor=none;align=left;verticalAlign=top;spacingLeft=4;spacingRight=4;overflow=hidden;rotatable=0;points=[[0,0.5],[1,0.5]];portConstraint=eastwest;fontColor=#FFFFFF;rounded=1;sketch=1;labelBorderColor=none;" parent="54" vertex="1">
                    <mxGeometry y="104" width="160" height="26" as="geometry"/>
                </mxCell>
                <mxCell id="59" value="+ done: boolean" style="text;strokeColor=none;fillColor=none;align=left;verticalAlign=top;spacingLeft=4;spacingRight=4;overflow=hidden;rotatable=0;points=[[0,0.5],[1,0.5]];portConstraint=eastwest;fontColor=#FFFFFF;rounded=1;sketch=1;labelBorderColor=none;" parent="54" vertex="1">
                    <mxGeometry y="130" width="160" height="26" as="geometry"/>
                </mxCell>
                <mxCell id="60" value="" style="line;strokeWidth=1;fillColor=none;align=left;verticalAlign=middle;spacingTop=-1;spacingLeft=3;spacingRight=3;rotatable=0;labelPosition=right;points=[];portConstraint=eastwest;fontColor=#FFFFFF;rounded=1;sketch=1;labelBorderColor=none;" parent="54" vertex="1">
                    <mxGeometry y="156" width="160" height="8" as="geometry"/>
                </mxCell>
                <mxCell id="63" value="Option" style="swimlane;fontStyle=1;align=center;verticalAlign=top;childLayout=stackLayout;horizontal=1;startSize=26;horizontalStack=0;resizeParent=1;resizeParentMax=0;resizeLast=0;collapsible=1;marginBottom=0;fillColor=#6a00ff;fontColor=#FFFFFF;rounded=1;sketch=1;labelBorderColor=none;strokeColor=#3700CC;" parent="233" vertex="1">
                    <mxGeometry x="305" y="286" width="160" height="112" as="geometry"/>
                </mxCell>
                <mxCell id="89" value="+ id: int" style="text;strokeColor=none;fillColor=none;align=left;verticalAlign=top;spacingLeft=4;spacingRight=4;overflow=hidden;rotatable=0;points=[[0,0.5],[1,0.5]];portConstraint=eastwest;fontColor=#FFFFFF;rounded=1;sketch=1;labelBorderColor=none;" parent="63" vertex="1">
                    <mxGeometry y="26" width="160" height="26" as="geometry"/>
                </mxCell>
                <mxCell id="64" value="+ answer: string" style="text;strokeColor=none;fillColor=none;align=left;verticalAlign=top;spacingLeft=4;spacingRight=4;overflow=hidden;rotatable=0;points=[[0,0.5],[1,0.5]];portConstraint=eastwest;fontColor=#FFFFFF;rounded=1;sketch=1;labelBorderColor=none;" parent="63" vertex="1">
                    <mxGeometry y="52" width="160" height="26" as="geometry"/>
                </mxCell>
                <mxCell id="68" value="+ correct: boolean" style="text;strokeColor=none;fillColor=none;align=left;verticalAlign=top;spacingLeft=4;spacingRight=4;overflow=hidden;rotatable=0;points=[[0,0.5],[1,0.5]];portConstraint=eastwest;fontColor=#FFFFFF;rounded=1;sketch=1;labelBorderColor=none;" parent="63" vertex="1">
                    <mxGeometry y="78" width="160" height="26" as="geometry"/>
                </mxCell>
                <mxCell id="69" value="" style="line;strokeWidth=1;fillColor=none;align=left;verticalAlign=middle;spacingTop=-1;spacingLeft=3;spacingRight=3;rotatable=0;labelPosition=right;points=[];portConstraint=eastwest;fontColor=#FFFFFF;rounded=1;sketch=1;labelBorderColor=none;" parent="63" vertex="1">
                    <mxGeometry y="104" width="160" height="8" as="geometry"/>
                </mxCell>
                <mxCell id="141" value="" style="edgeStyle=none;html=1;endArrow=none;endFill=0;startArrow=diamond;startFill=1;fontColor=#FFFFFF;rounded=1;sketch=0;labelBorderColor=none;strokeColor=#FFFFFF;" parent="233" source="54" target="63" edge="1">
                    <mxGeometry relative="1" as="geometry">
                        <mxPoint x="153" y="621.29" as="sourcePoint"/>
                        <mxPoint x="233" y="621.29" as="targetPoint"/>
                    </mxGeometry>
                </mxCell>
                <mxCell id="142" value="Has" style="edgeLabel;html=1;align=center;verticalAlign=middle;resizable=0;points=[];labelBackgroundColor=none;rotation=90;fontColor=#FFFFFF;rounded=1;sketch=1;labelBorderColor=none;" parent="141" vertex="1" connectable="0">
                    <mxGeometry x="0.4641" y="4" relative="1" as="geometry">
                        <mxPoint x="1" y="-19" as="offset"/>
                    </mxGeometry>
                </mxCell>
                <mxCell id="143" value="1" style="edgeLabel;html=1;align=center;verticalAlign=middle;resizable=0;points=[];fontSize=11;labelBackgroundColor=none;fontColor=#FFFFFF;rounded=1;sketch=1;labelBorderColor=none;" parent="141" vertex="1" connectable="0">
                    <mxGeometry x="-0.8149" relative="1" as="geometry">
                        <mxPoint x="-5" y="6" as="offset"/>
                    </mxGeometry>
                </mxCell>
                <mxCell id="144" value="0,*" style="edgeLabel;html=1;align=center;verticalAlign=middle;resizable=0;points=[];fontSize=11;labelBackgroundColor=none;fontColor=#FFFFFF;rounded=1;sketch=1;labelBorderColor=none;" parent="141" vertex="1" connectable="0">
                    <mxGeometry x="0.7565" y="1" relative="1" as="geometry">
                        <mxPoint x="8" y="-1" as="offset"/>
                    </mxGeometry>
                </mxCell>
                <mxCell id="33" value="Quiz" style="swimlane;fontStyle=1;align=center;verticalAlign=top;childLayout=stackLayout;horizontal=1;startSize=26;horizontalStack=0;resizeParent=1;resizeParentMax=0;resizeLast=0;collapsible=1;marginBottom=0;fillColor=#6a00ff;fontColor=#FFFFFF;rounded=1;sketch=1;labelBorderColor=none;strokeColor=#3700CC;" parent="233" vertex="1">
                    <mxGeometry x="25" y="19.5" width="160" height="164" as="geometry"/>
                </mxCell>
                <mxCell id="85" value="+ id: int" style="text;strokeColor=none;fillColor=none;align=left;verticalAlign=top;spacingLeft=4;spacingRight=4;overflow=hidden;rotatable=0;points=[[0,0.5],[1,0.5]];portConstraint=eastwest;fontColor=#FFFFFF;rounded=1;sketch=1;labelBorderColor=none;" parent="33" vertex="1">
                    <mxGeometry y="26" width="160" height="26" as="geometry"/>
                </mxCell>
                <mxCell id="34" value="+ title: string" style="text;strokeColor=none;fillColor=none;align=left;verticalAlign=top;spacingLeft=4;spacingRight=4;overflow=hidden;rotatable=0;points=[[0,0.5],[1,0.5]];portConstraint=eastwest;fontColor=#FFFFFF;rounded=1;sketch=1;labelBorderColor=none;" parent="33" vertex="1">
                    <mxGeometry y="52" width="160" height="26" as="geometry"/>
                </mxCell>
                <mxCell id="35" value="+ description: string" style="text;strokeColor=none;fillColor=none;align=left;verticalAlign=top;spacingLeft=4;spacingRight=4;overflow=hidden;rotatable=0;points=[[0,0.5],[1,0.5]];portConstraint=eastwest;fontColor=#FFFFFF;rounded=1;sketch=1;labelBorderColor=none;" parent="33" vertex="1">
                    <mxGeometry y="78" width="160" height="26" as="geometry"/>
                </mxCell>
                <mxCell id="37" value="+ score: int" style="text;strokeColor=none;fillColor=none;align=left;verticalAlign=top;spacingLeft=4;spacingRight=4;overflow=hidden;rotatable=0;points=[[0,0.5],[1,0.5]];portConstraint=eastwest;fontColor=#FFFFFF;rounded=1;sketch=1;labelBorderColor=none;" parent="33" vertex="1">
                    <mxGeometry y="104" width="160" height="26" as="geometry"/>
                </mxCell>
                <mxCell id="53" value="+ done: boolean" style="text;strokeColor=none;fillColor=none;align=left;verticalAlign=top;spacingLeft=4;spacingRight=4;overflow=hidden;rotatable=0;points=[[0,0.5],[1,0.5]];portConstraint=eastwest;fontColor=#FFFFFF;rounded=1;sketch=1;labelBorderColor=none;" parent="33" vertex="1">
                    <mxGeometry y="130" width="160" height="26" as="geometry"/>
                </mxCell>
                <mxCell id="38" value="" style="line;strokeWidth=1;fillColor=none;align=left;verticalAlign=middle;spacingTop=-1;spacingLeft=3;spacingRight=3;rotatable=0;labelPosition=right;points=[];portConstraint=eastwest;fontColor=#FFFFFF;rounded=1;sketch=1;labelBorderColor=none;" parent="33" vertex="1">
                    <mxGeometry y="156" width="160" height="8" as="geometry"/>
                </mxCell>
                <mxCell id="145" value="" style="edgeStyle=none;html=1;endArrow=none;endFill=0;startArrow=diamond;startFill=1;fontColor=#FFFFFF;rounded=1;sketch=0;labelBorderColor=none;strokeColor=#FFFFFF;" parent="233" source="33" target="54" edge="1">
                    <mxGeometry relative="1" as="geometry">
                        <mxPoint x="185" y="397" as="sourcePoint"/>
                        <mxPoint x="265" y="397" as="targetPoint"/>
                    </mxGeometry>
                </mxCell>
                <mxCell id="146" value="Includes" style="edgeLabel;html=1;align=center;verticalAlign=middle;resizable=0;points=[];labelBackgroundColor=none;fontColor=#FFFFFF;rounded=1;sketch=1;labelBorderColor=none;" parent="145" vertex="1" connectable="0">
                    <mxGeometry x="0.4641" y="4" relative="1" as="geometry">
                        <mxPoint x="-23" y="-4" as="offset"/>
                    </mxGeometry>
                </mxCell>
                <mxCell id="147" value="1" style="edgeLabel;html=1;align=center;verticalAlign=middle;resizable=0;points=[];fontSize=11;labelBackgroundColor=none;fontColor=#FFFFFF;rounded=1;sketch=1;labelBorderColor=none;" parent="145" vertex="1" connectable="0">
                    <mxGeometry x="-0.8149" relative="1" as="geometry">
                        <mxPoint x="-2" y="12" as="offset"/>
                    </mxGeometry>
                </mxCell>
                <mxCell id="148" value="1,*" style="edgeLabel;html=1;align=center;verticalAlign=middle;resizable=0;points=[];fontSize=11;labelBackgroundColor=none;fontColor=#FFFFFF;rounded=1;sketch=1;labelBorderColor=none;" parent="145" vertex="1" connectable="0">
                    <mxGeometry x="0.7565" y="1" relative="1" as="geometry">
                        <mxPoint y="-7" as="offset"/>
                    </mxGeometry>
                </mxCell>
                <mxCell id="269" value="Milestone" style="swimlane;fontStyle=1;align=center;verticalAlign=top;childLayout=stackLayout;horizontal=1;startSize=26;horizontalStack=0;resizeParent=1;resizeParentMax=0;resizeLast=0;collapsible=1;marginBottom=0;fillColor=#6a00ff;fontColor=#FFFFFF;rounded=1;sketch=1;labelBorderColor=none;strokeColor=#3700CC;" parent="233" vertex="1">
                    <mxGeometry x="25" y="273" width="160" height="138" as="geometry"/>
                </mxCell>
                <mxCell id="277" value="+ title: string" style="text;strokeColor=none;fillColor=none;align=left;verticalAlign=top;spacingLeft=4;spacingRight=4;overflow=hidden;rotatable=0;points=[[0,0.5],[1,0.5]];portConstraint=eastwest;fontColor=#FFFFFF;rounded=1;sketch=1;labelBorderColor=none;" parent="269" vertex="1">
                    <mxGeometry y="26" width="160" height="26" as="geometry"/>
                </mxCell>
                <mxCell id="278" value="+ description: string" style="text;strokeColor=none;fillColor=none;align=left;verticalAlign=top;spacingLeft=4;spacingRight=4;overflow=hidden;rotatable=0;points=[[0,0.5],[1,0.5]];portConstraint=eastwest;fontColor=#FFFFFF;rounded=1;sketch=1;labelBorderColor=none;" parent="269" vertex="1">
                    <mxGeometry y="52" width="160" height="26" as="geometry"/>
                </mxCell>
                <mxCell id="279" value="+ score: int" style="text;strokeColor=none;fillColor=none;align=left;verticalAlign=top;spacingLeft=4;spacingRight=4;overflow=hidden;rotatable=0;points=[[0,0.5],[1,0.5]];portConstraint=eastwest;fontColor=#FFFFFF;rounded=1;sketch=1;labelBorderColor=none;" parent="269" vertex="1">
                    <mxGeometry y="78" width="160" height="26" as="geometry"/>
                </mxCell>
                <mxCell id="280" value="+ done: boolean" style="text;strokeColor=none;fillColor=none;align=left;verticalAlign=top;spacingLeft=4;spacingRight=4;overflow=hidden;rotatable=0;points=[[0,0.5],[1,0.5]];portConstraint=eastwest;fontColor=#FFFFFF;rounded=1;sketch=1;labelBorderColor=none;" parent="269" vertex="1">
                    <mxGeometry y="104" width="160" height="26" as="geometry"/>
                </mxCell>
                <mxCell id="275" value="" style="line;strokeWidth=1;fillColor=none;align=left;verticalAlign=middle;spacingTop=-1;spacingLeft=3;spacingRight=3;rotatable=0;labelPosition=right;points=[];portConstraint=eastwest;fontColor=#FFFFFF;rounded=1;sketch=1;labelBorderColor=none;" parent="269" vertex="1">
                    <mxGeometry y="130" width="160" height="8" as="geometry"/>
                </mxCell>
                <mxCell id="276" value="" style="edgeStyle=none;html=1;endArrow=diamond;endFill=0;strokeColor=#FFFFFF;fontColor=#FFFFFF;" parent="233" source="33" target="269" edge="1">
                    <mxGeometry relative="1" as="geometry"/>
                </mxCell>
                <mxCell id="281" value="Has" style="edgeLabel;html=1;align=center;verticalAlign=middle;resizable=0;points=[];rotation=-90;labelBackgroundColor=none;fontColor=#FFFFFF;" parent="276" vertex="1" connectable="0">
                    <mxGeometry x="0.1993" y="-2" relative="1" as="geometry">
                        <mxPoint x="-5" y="-11" as="offset"/>
                    </mxGeometry>
                </mxCell>
                <mxCell id="282" value="1,*" style="edgeLabel;html=1;align=center;verticalAlign=middle;resizable=0;points=[];labelBackgroundColor=none;fontColor=#FFFFFF;" parent="276" vertex="1" connectable="0">
                    <mxGeometry x="0.7095" relative="1" as="geometry">
                        <mxPoint x="8" y="-3" as="offset"/>
                    </mxGeometry>
                </mxCell>
                <mxCell id="283" value="1" style="edgeLabel;html=1;align=center;verticalAlign=middle;resizable=0;points=[];labelBackgroundColor=none;fontColor=#FFFFFF;" parent="276" vertex="1" connectable="0">
                    <mxGeometry x="-0.8162" y="-1" relative="1" as="geometry">
                        <mxPoint x="-4" as="offset"/>
                    </mxGeometry>
                </mxCell>
                <mxCell id="230" value="Project" style="swimlane;startSize=0;labelBackgroundColor=none;fontSize=11;fillColor=none;fontColor=#FFFFFF;strokeColor=none;rounded=1;shadow=0;glass=0;swimlaneLine=0;swimlaneFillColor=#333300;sketch=1;labelBorderColor=none;" parent="1" vertex="1">
                    <mxGeometry x="-480" y="-20" width="440" height="370" as="geometry">
                        <mxRectangle x="-410" y="-209" width="80" height="20" as="alternateBounds"/>
                    </mxGeometry>
                </mxCell>
                <mxCell id="207" value="Project Prompt" style="swimlane;fontStyle=1;align=center;verticalAlign=top;childLayout=stackLayout;horizontal=1;startSize=26;horizontalStack=0;resizeParent=1;resizeParentMax=0;resizeLast=0;collapsible=1;marginBottom=0;fillColor=#6a00ff;fontColor=#FFFFFF;rounded=1;sketch=1;labelBorderColor=none;strokeColor=#3700CC;" parent="230" vertex="1">
                    <mxGeometry x="30" y="30" width="160" height="60" as="geometry"/>
                </mxCell>
                <mxCell id="211" value="+ prompt: string" style="text;strokeColor=none;fillColor=none;align=left;verticalAlign=top;spacingLeft=4;spacingRight=4;overflow=hidden;rotatable=0;points=[[0,0.5],[1,0.5]];portConstraint=eastwest;fontColor=#FFFFFF;rounded=1;sketch=1;labelBorderColor=none;" parent="207" vertex="1">
                    <mxGeometry y="26" width="160" height="26" as="geometry"/>
                </mxCell>
                <mxCell id="214" value="" style="line;strokeWidth=1;fillColor=none;align=left;verticalAlign=middle;spacingTop=-1;spacingLeft=3;spacingRight=3;rotatable=0;labelPosition=right;points=[];portConstraint=eastwest;fontColor=#FFFFFF;rounded=1;sketch=1;labelBorderColor=none;" parent="207" vertex="1">
                    <mxGeometry y="52" width="160" height="8" as="geometry"/>
                </mxCell>
                <mxCell id="253" value="User Story" style="swimlane;fontStyle=1;align=center;verticalAlign=top;childLayout=stackLayout;horizontal=1;startSize=26;horizontalStack=0;resizeParent=1;resizeParentMax=0;resizeLast=0;collapsible=1;marginBottom=0;fillColor=#6a00ff;fontColor=#FFFFFF;rounded=1;sketch=1;labelBorderColor=none;strokeColor=#3700CC;" parent="230" vertex="1">
                    <mxGeometry x="20" y="194" width="160" height="112" as="geometry"/>
                </mxCell>
                <mxCell id="254" value="+ id: int" style="text;strokeColor=none;fillColor=none;align=left;verticalAlign=top;spacingLeft=4;spacingRight=4;overflow=hidden;rotatable=0;points=[[0,0.5],[1,0.5]];portConstraint=eastwest;fontColor=#FFFFFF;rounded=1;sketch=1;labelBorderColor=none;" parent="253" vertex="1">
                    <mxGeometry y="26" width="160" height="26" as="geometry"/>
                </mxCell>
                <mxCell id="255" value="+ content: string" style="text;strokeColor=none;fillColor=none;align=left;verticalAlign=top;spacingLeft=4;spacingRight=4;overflow=hidden;rotatable=0;points=[[0,0.5],[1,0.5]];portConstraint=eastwest;fontColor=#FFFFFF;rounded=1;sketch=1;labelBorderColor=none;" parent="253" vertex="1">
                    <mxGeometry y="52" width="160" height="26" as="geometry"/>
                </mxCell>
                <mxCell id="257" value="+ done: boolean" style="text;strokeColor=none;fillColor=none;align=left;verticalAlign=top;spacingLeft=4;spacingRight=4;overflow=hidden;rotatable=0;points=[[0,0.5],[1,0.5]];portConstraint=eastwest;fontColor=#FFFFFF;rounded=1;sketch=1;labelBorderColor=none;" parent="253" vertex="1">
                    <mxGeometry y="78" width="160" height="26" as="geometry"/>
                </mxCell>
                <mxCell id="258" value="" style="line;strokeWidth=1;fillColor=none;align=left;verticalAlign=middle;spacingTop=-1;spacingLeft=3;spacingRight=3;rotatable=0;labelPosition=right;points=[];portConstraint=eastwest;fontColor=#FFFFFF;rounded=1;sketch=1;labelBorderColor=none;" parent="253" vertex="1">
                    <mxGeometry y="104" width="160" height="8" as="geometry"/>
                </mxCell>
                <mxCell id="217" value="Full Project" style="swimlane;fontStyle=1;align=center;verticalAlign=top;childLayout=stackLayout;horizontal=1;startSize=26;horizontalStack=0;resizeParent=1;resizeParentMax=0;resizeLast=0;collapsible=1;marginBottom=0;fillColor=#6a00ff;fontColor=#FFFFFF;rounded=1;sketch=1;labelBorderColor=none;strokeColor=#3700CC;" parent="230" vertex="1">
                    <mxGeometry x="260" y="30" width="160" height="60" as="geometry"/>
                </mxCell>
                <mxCell id="218" value="+ design: string" style="text;strokeColor=none;fillColor=none;align=left;verticalAlign=top;spacingLeft=4;spacingRight=4;overflow=hidden;rotatable=0;points=[[0,0.5],[1,0.5]];portConstraint=eastwest;fontColor=#FFFFFF;rounded=1;sketch=1;labelBorderColor=none;" parent="217" vertex="1">
                    <mxGeometry y="26" width="160" height="26" as="geometry"/>
                </mxCell>
                <mxCell id="220" value="" style="line;strokeWidth=1;fillColor=none;align=left;verticalAlign=middle;spacingTop=-1;spacingLeft=3;spacingRight=3;rotatable=0;labelPosition=right;points=[];portConstraint=eastwest;fontColor=#FFFFFF;rounded=1;sketch=1;labelBorderColor=none;" parent="217" vertex="1">
                    <mxGeometry y="52" width="160" height="8" as="geometry"/>
                </mxCell>
                <mxCell id="260" value="" style="edgeStyle=none;html=1;endArrow=diamond;endFill=1;startArrow=none;startFill=0;fontColor=#FFFFFF;rounded=1;sketch=0;labelBorderColor=none;strokeColor=#FFFFFF;" parent="230" source="253" target="159" edge="1">
                    <mxGeometry relative="1" as="geometry">
                        <mxPoint x="690" y="51.81999999999999" as="sourcePoint"/>
                        <mxPoint x="840" y="-127.99999999999977" as="targetPoint"/>
                    </mxGeometry>
                </mxCell>
                <mxCell id="261" value="Has" style="edgeLabel;html=1;align=center;verticalAlign=middle;resizable=0;points=[];labelBackgroundColor=none;fontColor=#FFFFFF;rounded=1;sketch=1;labelBorderColor=none;rotation=-180;" parent="260" vertex="1" connectable="0">
                    <mxGeometry x="0.4641" y="4" relative="1" as="geometry">
                        <mxPoint x="-19" y="11" as="offset"/>
                    </mxGeometry>
                </mxCell>
                <mxCell id="262" value="1,*" style="edgeLabel;html=1;align=center;verticalAlign=middle;resizable=0;points=[];fontSize=11;labelBackgroundColor=none;fontColor=#FFFFFF;rounded=1;sketch=1;labelBorderColor=none;" parent="260" vertex="1" connectable="0">
                    <mxGeometry x="-0.8149" relative="1" as="geometry">
                        <mxPoint x="1" y="8" as="offset"/>
                    </mxGeometry>
                </mxCell>
                <mxCell id="263" value="1" style="edgeLabel;html=1;align=center;verticalAlign=middle;resizable=0;points=[];fontSize=11;labelBackgroundColor=none;fontColor=#FFFFFF;rounded=1;sketch=1;labelBorderColor=none;" parent="260" vertex="1" connectable="0">
                    <mxGeometry x="0.7565" y="1" relative="1" as="geometry">
                        <mxPoint x="1" y="-7" as="offset"/>
                    </mxGeometry>
                </mxCell>
                <mxCell id="159" value="Project" style="swimlane;fontStyle=1;align=center;verticalAlign=top;childLayout=stackLayout;horizontal=1;startSize=26;horizontalStack=0;resizeParent=1;resizeParentMax=0;resizeLast=0;collapsible=1;marginBottom=0;fillColor=#6a00ff;fontColor=#FFFFFF;rounded=1;sketch=1;labelBorderColor=none;strokeColor=#3700CC;" parent="230" vertex="1">
                    <mxGeometry x="260" y="155" width="160" height="190" as="geometry"/>
                </mxCell>
                <mxCell id="160" value="+ id: int" style="text;strokeColor=none;fillColor=none;align=left;verticalAlign=top;spacingLeft=4;spacingRight=4;overflow=hidden;rotatable=0;points=[[0,0.5],[1,0.5]];portConstraint=eastwest;fontColor=#FFFFFF;rounded=1;sketch=1;labelBorderColor=none;" parent="159" vertex="1">
                    <mxGeometry y="26" width="160" height="26" as="geometry"/>
                </mxCell>
                <mxCell id="168" value="+ type: int" style="text;strokeColor=none;fillColor=none;align=left;verticalAlign=top;spacingLeft=4;spacingRight=4;overflow=hidden;rotatable=0;points=[[0,0.5],[1,0.5]];portConstraint=eastwest;fontColor=#FFFFFF;rounded=1;sketch=1;labelBorderColor=none;" parent="159" vertex="1">
                    <mxGeometry y="52" width="160" height="26" as="geometry"/>
                </mxCell>
                <mxCell id="161" value="+ title: string" style="text;strokeColor=none;fillColor=none;align=left;verticalAlign=top;spacingLeft=4;spacingRight=4;overflow=hidden;rotatable=0;points=[[0,0.5],[1,0.5]];portConstraint=eastwest;fontColor=#FFFFFF;rounded=1;sketch=1;labelBorderColor=none;" parent="159" vertex="1">
                    <mxGeometry y="78" width="160" height="26" as="geometry"/>
                </mxCell>
                <mxCell id="162" value="+ description: string" style="text;strokeColor=none;fillColor=none;align=left;verticalAlign=top;spacingLeft=4;spacingRight=4;overflow=hidden;rotatable=0;points=[[0,0.5],[1,0.5]];portConstraint=eastwest;fontColor=#FFFFFF;rounded=1;sketch=1;labelBorderColor=none;" parent="159" vertex="1">
                    <mxGeometry y="104" width="160" height="26" as="geometry"/>
                </mxCell>
                <mxCell id="163" value="+ time: int" style="text;strokeColor=none;fillColor=none;align=left;verticalAlign=top;spacingLeft=4;spacingRight=4;overflow=hidden;rotatable=0;points=[[0,0.5],[1,0.5]];portConstraint=eastwest;fontColor=#FFFFFF;rounded=1;sketch=1;labelBorderColor=none;" parent="159" vertex="1">
                    <mxGeometry y="130" width="160" height="26" as="geometry"/>
                </mxCell>
                <mxCell id="164" value="+ done: boolean" style="text;strokeColor=none;fillColor=none;align=left;verticalAlign=top;spacingLeft=4;spacingRight=4;overflow=hidden;rotatable=0;points=[[0,0.5],[1,0.5]];portConstraint=eastwest;fontColor=#FFFFFF;rounded=1;sketch=1;labelBorderColor=none;" parent="159" vertex="1">
                    <mxGeometry y="156" width="160" height="26" as="geometry"/>
                </mxCell>
                <mxCell id="165" value="" style="line;strokeWidth=1;fillColor=none;align=left;verticalAlign=middle;spacingTop=-1;spacingLeft=3;spacingRight=3;rotatable=0;labelPosition=right;points=[];portConstraint=eastwest;fontColor=#FFFFFF;rounded=1;sketch=1;labelBorderColor=none;" parent="159" vertex="1">
                    <mxGeometry y="182" width="160" height="8" as="geometry"/>
                </mxCell>
                <mxCell id="216" value="" style="edgeStyle=none;html=1;fontSize=11;startArrow=block;startFill=1;endArrow=none;endFill=0;fontColor=#FFFFFF;rounded=1;sketch=0;labelBorderColor=none;strokeColor=#FFFFFF;" parent="230" source="159" target="207" edge="1">
                    <mxGeometry relative="1" as="geometry">
                        <Array as="points">
                            <mxPoint x="340" y="117"/>
                            <mxPoint x="110" y="117"/>
                        </Array>
                    </mxGeometry>
                </mxCell>
                <mxCell id="222" style="edgeStyle=none;html=1;fontSize=11;startArrow=none;startFill=0;endArrow=block;endFill=1;fontColor=#FFFFFF;rounded=1;sketch=0;labelBorderColor=none;strokeColor=#FFFFFF;" parent="230" source="217" target="159" edge="1">
                    <mxGeometry relative="1" as="geometry"/>
                </mxCell>
                <mxCell id="154" style="edgeStyle=none;html=1;startArrow=none;startFill=0;endArrow=none;endFill=0;fontColor=#FFFFFF;rounded=1;sketch=0;labelBorderColor=none;strokeColor=#FFFFFF;entryX=0;entryY=0.5;entryDx=0;entryDy=0;" parent="1" source="95" target="53" edge="1">
                    <mxGeometry relative="1" as="geometry">
                        <Array as="points">
                            <mxPoint x="400" y="895"/>
                            <mxPoint x="400" y="658"/>
                        </Array>
                    </mxGeometry>
                </mxCell>
                <mxCell id="155" value="Verifies" style="edgeLabel;html=1;align=center;verticalAlign=middle;resizable=0;points=[];labelBackgroundColor=none;fontColor=#FFFFFF;rounded=1;sketch=1;labelBorderColor=none;rotation=90;" parent="154" vertex="1" connectable="0">
                    <mxGeometry x="-0.2774" y="1" relative="1" as="geometry">
                        <mxPoint x="11" y="-43" as="offset"/>
                    </mxGeometry>
                </mxCell>
                <mxCell id="156" value="1" style="edgeLabel;html=1;align=center;verticalAlign=middle;resizable=0;points=[];labelBackgroundColor=none;fontColor=#FFFFFF;rounded=1;sketch=1;labelBorderColor=none;" parent="154" vertex="1" connectable="0">
                    <mxGeometry x="-0.7889" y="3" relative="1" as="geometry">
                        <mxPoint x="-43" y="-4" as="offset"/>
                    </mxGeometry>
                </mxCell>
                <mxCell id="157" value="0,1" style="edgeLabel;html=1;align=center;verticalAlign=middle;resizable=0;points=[];labelBackgroundColor=none;fontColor=#FFFFFF;rounded=1;sketch=1;labelBorderColor=none;" parent="154" vertex="1" connectable="0">
                    <mxGeometry x="0.8348" y="-1" relative="1" as="geometry">
                        <mxPoint x="10" y="-24" as="offset"/>
                    </mxGeometry>
                </mxCell>
                <mxCell id="125" value="" style="edgeStyle=none;html=1;endArrow=none;endFill=0;startArrow=diamond;startFill=1;fontColor=#FFFFFF;rounded=1;sketch=0;labelBorderColor=none;strokeColor=#FFFFFF;" parent="1" source="7" target="33" edge="1">
                    <mxGeometry relative="1" as="geometry">
                        <mxPoint x="739.0272835112696" y="312" as="sourcePoint"/>
                        <mxPoint x="735.9727164887308" y="569.5" as="targetPoint"/>
                        <Array as="points"/>
                    </mxGeometry>
                </mxCell>
                <mxCell id="126" value="Has" style="edgeLabel;html=1;align=center;verticalAlign=middle;resizable=0;points=[];labelBackgroundColor=none;fontColor=#FFFFFF;rounded=1;sketch=1;labelBorderColor=none;rotation=90;" parent="125" vertex="1" connectable="0">
                    <mxGeometry x="0.4641" y="4" relative="1" as="geometry">
                        <mxPoint x="5" y="-81" as="offset"/>
                    </mxGeometry>
                </mxCell>
                <mxCell id="127" value="1" style="edgeLabel;html=1;align=center;verticalAlign=middle;resizable=0;points=[];fontSize=11;labelBackgroundColor=none;fontColor=#FFFFFF;rounded=1;sketch=1;labelBorderColor=none;" parent="125" vertex="1" connectable="0">
                    <mxGeometry x="-0.8149" relative="1" as="geometry">
                        <mxPoint x="-6" y="-5" as="offset"/>
                    </mxGeometry>
                </mxCell>
                <mxCell id="128" value="0,1" style="edgeLabel;html=1;align=center;verticalAlign=middle;resizable=0;points=[];fontSize=11;labelBackgroundColor=none;fontColor=#FFFFFF;rounded=1;sketch=1;labelBorderColor=none;" parent="125" vertex="1" connectable="0">
                    <mxGeometry x="0.7565" y="1" relative="1" as="geometry">
                        <mxPoint x="14" y="21" as="offset"/>
                    </mxGeometry>
                </mxCell>
                <mxCell id="133" value="" style="edgeStyle=none;html=1;endArrow=none;endFill=0;startArrow=none;startFill=0;fontColor=#FFFFFF;rounded=1;sketch=0;labelBorderColor=none;strokeColor=#FFFFFF;" parent="1" source="2" target="75" edge="1">
                    <mxGeometry relative="1" as="geometry">
                        <mxPoint x="285" y="297" as="sourcePoint"/>
                        <mxPoint x="365" y="297" as="targetPoint"/>
                    </mxGeometry>
                </mxCell>
                <mxCell id="134" value="Follows" style="edgeLabel;html=1;align=center;verticalAlign=middle;resizable=0;points=[];labelBackgroundColor=none;rotation=-90;fontColor=#FFFFFF;rounded=1;sketch=1;labelBorderColor=none;" parent="133" vertex="1" connectable="0">
                    <mxGeometry x="0.4641" y="4" relative="1" as="geometry">
                        <mxPoint x="-11" y="-13" as="offset"/>
                    </mxGeometry>
                </mxCell>
                <mxCell id="135" value="1,*" style="edgeLabel;html=1;align=center;verticalAlign=middle;resizable=0;points=[];fontSize=11;labelBackgroundColor=none;fontColor=#FFFFFF;rounded=1;sketch=1;labelBorderColor=none;" parent="133" vertex="1" connectable="0">
                    <mxGeometry x="-0.8149" relative="1" as="geometry">
                        <mxPoint x="-11" y="1" as="offset"/>
                    </mxGeometry>
                </mxCell>
                <mxCell id="136" value="0,*" style="edgeLabel;html=1;align=center;verticalAlign=middle;resizable=0;points=[];fontSize=11;labelBackgroundColor=none;fontColor=#FFFFFF;rounded=1;sketch=1;labelBorderColor=none;" parent="133" vertex="1" connectable="0">
                    <mxGeometry x="0.7565" y="1" relative="1" as="geometry">
                        <mxPoint x="16" y="-1" as="offset"/>
                    </mxGeometry>
                </mxCell>
                <mxCell id="137" value="" style="edgeStyle=none;html=1;endArrow=none;endFill=0;startArrow=none;startFill=0;fontColor=#FFFFFF;rounded=1;sketch=0;labelBorderColor=none;strokeColor=#FFFFFF;" parent="1" source="75" target="33" edge="1">
                    <mxGeometry relative="1" as="geometry">
                        <mxPoint x="273" y="462" as="sourcePoint"/>
                        <mxPoint x="353" y="462" as="targetPoint"/>
                    </mxGeometry>
                </mxCell>
                <mxCell id="138" value="Passes" style="edgeLabel;html=1;align=center;verticalAlign=middle;resizable=0;points=[];labelBackgroundColor=none;fontColor=#FFFFFF;rounded=1;sketch=1;labelBorderColor=none;" parent="137" vertex="1" connectable="0">
                    <mxGeometry x="0.4641" y="4" relative="1" as="geometry">
                        <mxPoint x="-43" y="-5" as="offset"/>
                    </mxGeometry>
                </mxCell>
                <mxCell id="139" value="0,*" style="edgeLabel;html=1;align=center;verticalAlign=middle;resizable=0;points=[];fontSize=11;labelBackgroundColor=none;fontColor=#FFFFFF;rounded=1;sketch=1;labelBorderColor=none;" parent="137" vertex="1" connectable="0">
                    <mxGeometry x="-0.8149" relative="1" as="geometry">
                        <mxPoint x="-8" y="8" as="offset"/>
                    </mxGeometry>
                </mxCell>
                <mxCell id="140" value="0,*" style="edgeLabel;html=1;align=center;verticalAlign=middle;resizable=0;points=[];fontSize=11;labelBackgroundColor=none;fontColor=#FFFFFF;rounded=1;sketch=1;labelBorderColor=none;" parent="137" vertex="1" connectable="0">
                    <mxGeometry x="0.7565" y="1" relative="1" as="geometry">
                        <mxPoint x="15" y="-7" as="offset"/>
                    </mxGeometry>
                </mxCell>
                <mxCell id="202" style="edgeStyle=none;html=1;fontSize=11;startArrow=none;startFill=0;endArrow=none;endFill=0;fontColor=#FFFFFF;rounded=1;sketch=0;labelBorderColor=none;strokeColor=#FFFFFF;" parent="1" source="159" target="95" edge="1">
                    <mxGeometry relative="1" as="geometry">
                        <Array as="points">
                            <mxPoint x="-200" y="370"/>
                            <mxPoint x="-200" y="895"/>
                        </Array>
                    </mxGeometry>
                </mxCell>
                <mxCell id="203" value="Level up" style="edgeLabel;html=1;align=center;verticalAlign=middle;resizable=0;points=[];fontSize=11;rotation=0;labelBackgroundColor=none;fontColor=#FFFFFF;rounded=1;sketch=1;labelBorderColor=none;" parent="202" vertex="1" connectable="0">
                    <mxGeometry x="0.4668" relative="1" as="geometry">
                        <mxPoint x="42" y="-9" as="offset"/>
                    </mxGeometry>
                </mxCell>
                <mxCell id="204" value="1,*" style="edgeLabel;html=1;align=center;verticalAlign=middle;resizable=0;points=[];fontSize=11;labelBackgroundColor=none;fontColor=#FFFFFF;rounded=1;sketch=1;labelBorderColor=none;" parent="202" vertex="1" connectable="0">
                    <mxGeometry x="0.9516" y="1" relative="1" as="geometry">
                        <mxPoint x="6" y="-13" as="offset"/>
                    </mxGeometry>
                </mxCell>
                <mxCell id="205" value="0,*" style="edgeLabel;html=1;align=center;verticalAlign=middle;resizable=0;points=[];fontSize=11;labelBackgroundColor=none;fontColor=#FFFFFF;rounded=1;sketch=1;labelBorderColor=none;" parent="202" vertex="1" connectable="0">
                    <mxGeometry x="-0.8203" y="-2" relative="1" as="geometry">
                        <mxPoint x="-8" y="-72" as="offset"/>
                    </mxGeometry>
                </mxCell>
                <mxCell id="180" style="edgeStyle=none;html=1;fontSize=11;startArrow=none;startFill=0;endArrow=none;endFill=0;fontColor=#FFFFFF;rounded=1;sketch=0;labelBorderColor=none;strokeColor=#FFFFFF;entryX=0.999;entryY=0.577;entryDx=0;entryDy=0;entryPerimeter=0;" parent="1" source="169" target="163" edge="1">
                    <mxGeometry relative="1" as="geometry">
                        <mxPoint x="-60" y="-70.87610619469035" as="targetPoint"/>
                        <Array as="points">
                            <mxPoint x="-27" y="280"/>
                        </Array>
                    </mxGeometry>
                </mxCell>
                <mxCell id="245" value="Manages" style="edgeLabel;html=1;align=center;verticalAlign=middle;resizable=0;points=[];fontSize=11;labelBackgroundColor=none;rotation=-90;fontColor=#FFFFFF;rounded=1;sketch=1;labelBorderColor=none;" parent="180" vertex="1" connectable="0">
                    <mxGeometry x="0.0836" y="1" relative="1" as="geometry">
                        <mxPoint x="-6" y="95" as="offset"/>
                    </mxGeometry>
                </mxCell>
                <mxCell id="249" value="1" style="edgeLabel;html=1;align=center;verticalAlign=middle;resizable=0;points=[];fontSize=11;labelBackgroundColor=none;fontColor=#FFFFFF;rounded=1;sketch=1;labelBorderColor=none;" parent="180" vertex="1" connectable="0">
                    <mxGeometry x="-0.8584" y="1" relative="1" as="geometry">
                        <mxPoint x="7" y="1" as="offset"/>
                    </mxGeometry>
                </mxCell>
                <mxCell id="252" value="0,*" style="edgeLabel;html=1;align=center;verticalAlign=middle;resizable=0;points=[];fontSize=11;fontColor=#FFFFFF;labelBackgroundColor=none;rounded=1;sketch=1;labelBorderColor=none;" parent="180" vertex="1" connectable="0">
                    <mxGeometry x="0.9734" relative="1" as="geometry">
                        <mxPoint x="8" y="-7" as="offset"/>
                    </mxGeometry>
                </mxCell>
                <mxCell id="198" value="" style="edgeStyle=none;html=1;endArrow=diamond;endFill=0;startArrow=none;startFill=0;fontColor=#FFFFFF;rounded=1;sketch=0;labelBorderColor=none;strokeColor=#FFFFFF;" parent="1" source="159" target="2" edge="1">
                    <mxGeometry relative="1" as="geometry">
                        <mxPoint x="275" y="287" as="sourcePoint"/>
                        <mxPoint x="355" y="287" as="targetPoint"/>
                    </mxGeometry>
                </mxCell>
                <mxCell id="199" value="Contains" style="edgeLabel;html=1;align=center;verticalAlign=middle;resizable=0;points=[];labelBackgroundColor=none;fontColor=#FFFFFF;rounded=1;sketch=1;labelBorderColor=none;rotation=-180;" parent="198" vertex="1" connectable="0">
                    <mxGeometry x="0.4641" y="4" relative="1" as="geometry">
                        <mxPoint x="-59" y="11" as="offset"/>
                    </mxGeometry>
                </mxCell>
                <mxCell id="200" value="1,*" style="edgeLabel;html=1;align=center;verticalAlign=middle;resizable=0;points=[];fontSize=11;labelBackgroundColor=none;fontColor=#FFFFFF;rounded=1;sketch=1;labelBorderColor=none;" parent="198" vertex="1" connectable="0">
                    <mxGeometry x="-0.8149" relative="1" as="geometry">
                        <mxPoint x="-9" y="8" as="offset"/>
                    </mxGeometry>
                </mxCell>
                <mxCell id="201" value="1,*" style="edgeLabel;html=1;align=center;verticalAlign=middle;resizable=0;points=[];fontSize=11;labelBackgroundColor=none;fontColor=#FFFFFF;rounded=1;sketch=1;labelBorderColor=none;" parent="198" vertex="1" connectable="0">
                    <mxGeometry x="0.7565" y="1" relative="1" as="geometry">
                        <mxPoint x="12" y="-8" as="offset"/>
                    </mxGeometry>
                </mxCell>
                <mxCell id="244" style="edgeStyle=none;html=1;fontSize=11;startArrow=none;startFill=0;endArrow=none;endFill=0;fontColor=#FFFFFF;rounded=1;sketch=0;labelBorderColor=none;strokeColor=#FFFFFF;" parent="1" source="237" target="159" edge="1">
                    <mxGeometry relative="1" as="geometry">
                        <mxPoint x="-23.268817204301058" y="460" as="sourcePoint"/>
                        <mxPoint x="-130" y="346" as="targetPoint"/>
                        <Array as="points">
                            <mxPoint x="-140" y="650"/>
                        </Array>
                    </mxGeometry>
                </mxCell>
                <mxCell id="247" value="Manages" style="edgeLabel;html=1;align=center;verticalAlign=middle;resizable=0;points=[];fontSize=11;labelBackgroundColor=none;rotation=-90;fontColor=#FFFFFF;rounded=1;sketch=1;labelBorderColor=none;" parent="244" vertex="1" connectable="0">
                    <mxGeometry x="0.333" y="4" relative="1" as="geometry">
                        <mxPoint x="-4" y="115" as="offset"/>
                    </mxGeometry>
                </mxCell>
                <mxCell id="248" value="0,*" style="edgeLabel;html=1;align=center;verticalAlign=middle;resizable=0;points=[];fontSize=11;labelBackgroundColor=none;fontColor=#FFFFFF;rounded=1;sketch=1;labelBorderColor=none;" parent="244" vertex="1" connectable="0">
                    <mxGeometry x="0.9013" y="-3" relative="1" as="geometry">
                        <mxPoint x="7" y="-7" as="offset"/>
                    </mxGeometry>
                </mxCell>
                <mxCell id="250" value="1" style="edgeLabel;html=1;align=center;verticalAlign=middle;resizable=0;points=[];fontSize=11;labelBackgroundColor=none;fontColor=#FFFFFF;rounded=1;sketch=1;labelBorderColor=none;" parent="244" vertex="1" connectable="0">
                    <mxGeometry x="-0.9526" relative="1" as="geometry">
                        <mxPoint x="-2" y="-9" as="offset"/>
                    </mxGeometry>
                </mxCell>
                <mxCell id="284" style="edgeStyle=none;html=1;endArrow=diamond;endFill=0;strokeColor=#FFFFFF;fontColor=#FFFFFF;" parent="1" source="308" target="269" edge="1">
                    <mxGeometry relative="1" as="geometry">
                        <mxPoint x="280" y="320" as="sourcePoint"/>
                        <Array as="points">
                            <mxPoint x="480" y="837"/>
                        </Array>
                    </mxGeometry>
                </mxCell>
                <mxCell id="285" value="1" style="edgeLabel;html=1;align=center;verticalAlign=middle;resizable=0;points=[];labelBackgroundColor=none;fontColor=#FFFFFF;" parent="284" vertex="1" connectable="0">
                    <mxGeometry x="-0.9728" relative="1" as="geometry">
                        <mxPoint x="12" y="2" as="offset"/>
                    </mxGeometry>
                </mxCell>
                <mxCell id="286" value="0,*" style="edgeLabel;html=1;align=center;verticalAlign=middle;resizable=0;points=[];labelBackgroundColor=none;fontColor=#FFFFFF;" parent="284" vertex="1" connectable="0">
                    <mxGeometry x="0.9518" y="1" relative="1" as="geometry">
                        <mxPoint y="-11" as="offset"/>
                    </mxGeometry>
                </mxCell>
                <mxCell id="287" value="Has" style="edgeLabel;html=1;align=center;verticalAlign=middle;resizable=0;points=[];rotation=90;labelBackgroundColor=none;fontColor=#FFFFFF;" parent="284" vertex="1" connectable="0">
                    <mxGeometry x="-0.3017" y="5" relative="1" as="geometry">
                        <mxPoint x="3" y="-1" as="offset"/>
                    </mxGeometry>
                </mxCell>
                <mxCell id="292" style="edgeStyle=none;html=1;fontSize=11;startArrow=none;startFill=0;endArrow=none;endFill=0;fontColor=#FFFFFF;rounded=1;sketch=0;labelBorderColor=none;strokeColor=#FFFFFF;entryX=0.013;entryY=0.03;entryDx=0;entryDy=0;entryPerimeter=0;" parent="1" source="169" target="15" edge="1">
                    <mxGeometry relative="1" as="geometry">
                        <mxPoint x="-50" y="317.87610619469024" as="targetPoint"/>
                        <Array as="points">
                            <mxPoint x="-27" y="280"/>
                        </Array>
                        <mxPoint x="-17.433070866141634" y="460" as="sourcePoint"/>
                    </mxGeometry>
                </mxCell>
                <mxCell id="295" value="0,*" style="edgeLabel;html=1;align=center;verticalAlign=middle;resizable=0;points=[];fontSize=11;fontColor=#FFFFFF;labelBackgroundColor=none;rounded=1;sketch=1;labelBorderColor=none;" parent="292" vertex="1" connectable="0">
                    <mxGeometry x="0.9734" relative="1" as="geometry">
                        <mxPoint x="-8" y="-10" as="offset"/>
                    </mxGeometry>
                </mxCell>
                <mxCell id="296" style="edgeStyle=none;html=1;fontSize=11;startArrow=none;startFill=0;endArrow=none;endFill=0;fontColor=#FFFFFF;rounded=1;sketch=0;labelBorderColor=none;strokeColor=#FFFFFF;entryX=0.006;entryY=0.03;entryDx=0;entryDy=0;entryPerimeter=0;" parent="1" source="237" target="15" edge="1">
                    <mxGeometry relative="1" as="geometry">
                        <mxPoint x="-97.5" y="620" as="sourcePoint"/>
                        <mxPoint x="-130" y="335" as="targetPoint"/>
                        <Array as="points">
                            <mxPoint x="-140" y="650"/>
                            <mxPoint x="-140" y="500"/>
                            <mxPoint x="-140" y="410"/>
                            <mxPoint x="-27" y="410"/>
                            <mxPoint x="-27" y="280"/>
                        </Array>
                    </mxGeometry>
                </mxCell>
                <mxCell id="320" style="edgeStyle=none;html=1;" parent="1" source="75" target="44" edge="1">
                    <mxGeometry relative="1" as="geometry">
                        <Array as="points">
                            <mxPoint x="310" y="420"/>
                            <mxPoint x="1250" y="420"/>
                        </Array>
                    </mxGeometry>
                </mxCell>
                <mxCell id="321" value="Bookmarks" style="edgeLabel;html=1;align=center;verticalAlign=middle;resizable=0;points=[];labelBackgroundColor=none;" parent="320" vertex="1" connectable="0">
                    <mxGeometry x="0.1725" y="-2" relative="1" as="geometry">
                        <mxPoint x="-5" y="-12" as="offset"/>
                    </mxGeometry>
                </mxCell>
                <mxCell id="322" value="0,*" style="edgeLabel;html=1;align=center;verticalAlign=middle;resizable=0;points=[];labelBackgroundColor=none;" parent="320" vertex="1" connectable="0">
                    <mxGeometry x="0.8623" y="-6" relative="1" as="geometry">
                        <mxPoint x="4" y="-60" as="offset"/>
                    </mxGeometry>
                </mxCell>
                <mxCell id="323" value="1" style="edgeLabel;html=1;align=center;verticalAlign=middle;resizable=0;points=[];labelBackgroundColor=none;" parent="320" vertex="1" connectable="0">
                    <mxGeometry x="-0.9868" relative="1" as="geometry">
                        <mxPoint x="-7" y="-8" as="offset"/>
                    </mxGeometry>
                </mxCell>
                <mxCell id="324" value="Roadmap" style="swimlane;startSize=0;rounded=1;shadow=0;glass=0;labelBackgroundColor=none;comic=0;fontSize=11;strokeColor=none;fillColor=none;gradientColor=none;gradientDirection=north;swimlaneFillColor=#666600;fontColor=#FFFFFF;sketch=1;labelBorderColor=none;" parent="1" vertex="1">
                    <mxGeometry x="106" y="-260" width="244" height="290" as="geometry"/>
                </mxCell>
                <mxCell id="325" value="Interview Question" style="swimlane;fontStyle=1;align=center;verticalAlign=top;childLayout=stackLayout;horizontal=1;startSize=26;horizontalStack=0;resizeParent=1;resizeParentMax=0;resizeLast=0;collapsible=1;marginBottom=0;fillColor=#6a00ff;fontColor=#FFFFFF;rounded=1;sketch=1;labelBorderColor=none;labelBackgroundColor=none;strokeColor=#3700CC;" parent="324" vertex="1">
                    <mxGeometry x="42" y="89" width="160" height="112" as="geometry"/>
                </mxCell>
                <mxCell id="326" value="+ id: int" style="text;strokeColor=none;fillColor=none;align=left;verticalAlign=top;spacingLeft=4;spacingRight=4;overflow=hidden;rotatable=0;points=[[0,0.5],[1,0.5]];portConstraint=eastwest;fontColor=#FFFFFF;rounded=1;sketch=1;labelBorderColor=none;" parent="325" vertex="1">
                    <mxGeometry y="26" width="160" height="26" as="geometry"/>
                </mxCell>
                <mxCell id="327" value="+ question: string" style="text;strokeColor=none;fillColor=none;align=left;verticalAlign=top;spacingLeft=4;spacingRight=4;overflow=hidden;rotatable=0;points=[[0,0.5],[1,0.5]];portConstraint=eastwest;fontColor=#FFFFFF;rounded=1;sketch=1;labelBorderColor=none;" parent="325" vertex="1">
                    <mxGeometry y="52" width="160" height="26" as="geometry"/>
                </mxCell>
                <mxCell id="328" value="+ answer: string" style="text;strokeColor=none;fillColor=none;align=left;verticalAlign=top;spacingLeft=4;spacingRight=4;overflow=hidden;rotatable=0;points=[[0,0.5],[1,0.5]];portConstraint=eastwest;fontColor=#FFFFFF;rounded=1;sketch=1;labelBorderColor=none;" parent="325" vertex="1">
                    <mxGeometry y="78" width="160" height="26" as="geometry"/>
                </mxCell>
                <mxCell id="329" value="" style="line;strokeWidth=1;fillColor=none;align=left;verticalAlign=middle;spacingTop=-1;spacingLeft=3;spacingRight=3;rotatable=0;labelPosition=right;points=[];portConstraint=eastwest;fontColor=#FFFFFF;rounded=1;sketch=1;labelBorderColor=none;" parent="325" vertex="1">
                    <mxGeometry y="104" width="160" height="8" as="geometry"/>
                </mxCell>
            </root>
        </mxGraphModel>
    </diagram>
</mxfile>